<svg width="12" height="14" viewBox="0 0 12 14" fill="none" xmlns="http://www.w3.org/2000/svg">
<path fill-rule="evenodd" clip-rule="evenodd" d="M7.75 0.729126H5.38376C4.31173 0.729117 3.46261 0.72911 2.79807 0.818455C2.11416 0.910405 1.5606 1.10414 1.12406 1.54068C0.687514 1.97723 0.493779 2.53078 0.401829 3.2147C0.312484 3.87924 0.312491 4.72835 0.3125 5.80038V9.33329C0.3125 10.4254 1.11286 11.3306 2.15905 11.4944C2.23953 11.94 2.39356 12.3204 2.7032 12.6301C3.05432 12.9812 3.49642 13.1322 4.02148 13.2028C4.52721 13.2708 5.17023 13.2708 5.96799 13.2708H7.78201C8.57977 13.2708 9.22279 13.2708 9.72852 13.2028C10.2536 13.1322 10.6957 12.9812 11.0468 12.6301C11.3979 12.279 11.5489 11.8369 11.6195 11.3118C11.6875 10.8061 11.6875 10.1631 11.6875 9.3653V6.38462C11.6875 5.58686 11.6875 4.94384 11.6195 4.43811C11.5489 3.91304 11.3979 3.47095 11.0468 3.11983C10.7371 2.81018 10.3568 2.65616 9.91109 2.57568C9.74735 1.52949 8.84214 0.729126 7.75 0.729126ZM8.99211 2.49147C8.81547 1.97526 8.32608 1.60413 7.75 1.60413H5.41667C4.30436 1.60413 3.51413 1.60506 2.91466 1.68565C2.32778 1.76456 1.98965 1.91253 1.74278 2.1594C1.4959 2.40628 1.34793 2.7444 1.26903 3.33129C1.18843 3.93076 1.1875 4.72098 1.1875 5.83329V9.33329C1.1875 9.90937 1.55864 10.3988 2.07485 10.5754C2.06249 10.2196 2.06249 9.81728 2.0625 9.3653V6.38462C2.06249 5.58685 2.06248 4.94384 2.13047 4.43811C2.20107 3.91304 2.35209 3.47095 2.7032 3.11983C3.05432 2.76871 3.49642 2.61769 4.02148 2.5471C4.52721 2.4791 5.17023 2.47911 5.96799 2.47913H7.78201C8.23399 2.47912 8.6363 2.47911 8.99211 2.49147ZM3.32192 3.73855C3.48337 3.5771 3.71004 3.47184 4.13807 3.4143C4.57869 3.35506 5.16267 3.35413 6 3.35413H7.75C8.58733 3.35413 9.17131 3.35506 9.61193 3.4143C10.04 3.47184 10.2666 3.5771 10.4281 3.73855C10.5895 3.89999 10.6948 4.12666 10.7523 4.5547C10.8116 4.99532 10.8125 5.5793 10.8125 6.41663V9.33329C10.8125 10.1706 10.8116 10.7546 10.7523 11.1952C10.6948 11.6233 10.5895 11.8499 10.4281 12.0114C10.2666 12.1728 10.04 12.2781 9.61193 12.3356C9.17131 12.3949 8.58733 12.3958 7.75 12.3958H6C5.16267 12.3958 4.57869 12.3949 4.13807 12.3356C3.71004 12.2781 3.48337 12.1728 3.32192 12.0114C3.16048 11.8499 3.05522 11.6233 2.99767 11.1952C2.93843 10.7546 2.9375 10.1706 2.9375 9.33329V6.41663C2.9375 5.5793 2.93843 4.99532 2.99767 4.5547C3.05522 4.12666 3.16048 3.89999 3.32192 3.73855Z" fill="white"/>
</svg>
