<svg width="16" height="9" viewBox="0 0 16 9" fill="none" xmlns="http://www.w3.org/2000/svg">
<path d="M11.8984 0.981351C11.4032 0.979462 10.9124 1.07527 10.4543 1.26329C9.99618 1.45131 9.57964 1.72785 9.22853 2.07708L8.00089 3.25547L6.79172 2.09467C6.43993 1.74046 6.02129 1.45965 5.56011 1.26854C5.09893 1.07742 4.60438 0.979804 4.10516 0.981351C3.60626 0.980134 3.11207 1.07791 2.65122 1.26901C2.19036 1.46012 1.772 1.74075 1.42036 2.09467C1.06604 2.44641 0.785094 2.86502 0.593828 3.3262C0.402562 3.78738 0.304784 4.28196 0.306167 4.78122C0.306167 5.79429 0.701016 6.74932 1.41948 7.46602C1.77111 7.8202 2.18959 8.101 2.65063 8.29212C3.11167 8.48324 3.60608 8.58087 4.10516 8.57934C4.60056 8.58148 5.0915 8.48561 5.5497 8.29726C6.00791 8.10891 6.42433 7.83179 6.77501 7.48185L8.00177 6.30522L9.21182 7.46602C9.92853 8.18361 10.8836 8.57934 11.8984 8.57934C12.9132 8.57934 13.8665 8.18449 14.5832 7.46602C15.3016 6.7502 15.6974 5.79517 15.6974 4.77947C15.6974 3.76376 15.3025 2.81138 14.5841 2.09291C14.232 1.73948 13.8134 1.45929 13.3524 1.26851C12.8914 1.07772 12.3973 0.980127 11.8984 0.981351ZM5.23607 5.91037C4.63192 6.5154 3.57928 6.5154 2.97426 5.91037C2.82534 5.76233 2.70725 5.58623 2.62679 5.39227C2.54634 5.19831 2.50513 4.99033 2.50554 4.78035C2.50554 4.35296 2.67174 3.95283 2.97602 3.64856C3.27677 3.34605 3.67865 3.17984 4.10516 3.17984C4.53167 3.17984 4.93355 3.34605 5.25278 3.66439L6.41446 4.78122L5.23607 5.91037ZM13.0284 5.91037C12.4243 6.51628 11.3874 6.53035 10.7508 5.89454L9.58908 4.77771L10.7666 3.64768C11.3716 3.04266 12.4251 3.04266 13.0293 3.64592C13.3318 3.9502 13.498 4.35032 13.498 4.77771C13.498 5.20509 13.3309 5.60786 13.0284 5.91037Z" fill="white" fill-opacity="0.8"/>
</svg>
