<svg width="18" height="18" viewBox="0 0 18 18" fill="none" xmlns="http://www.w3.org/2000/svg">
<path d="M9.8565 0.667773C10.4646 0.66544 11.0727 0.671552 11.6807 0.686107L11.8423 0.69194C12.029 0.698607 12.2132 0.70694 12.4357 0.71694C13.3223 0.758607 13.9273 0.898607 14.4582 1.10444C15.0082 1.31611 15.4715 1.60277 15.9348 2.06611C16.3585 2.48245 16.6864 2.98606 16.8957 3.54194C17.1015 4.07277 17.2415 4.67861 17.2832 5.56527C17.2932 5.78694 17.3015 5.97194 17.3082 6.15861L17.3132 6.32027C17.328 6.92793 17.3344 7.53577 17.3323 8.14361L17.3332 8.76527V9.85694C17.3352 10.4651 17.3288 11.0732 17.314 11.6811L17.309 11.8428C17.3023 12.0294 17.294 12.2136 17.284 12.4361C17.2423 13.3228 17.1007 13.9278 16.8957 14.4586C16.687 15.0151 16.3591 15.5191 15.9348 15.9353C15.5181 16.3589 15.0143 16.6867 14.4582 16.8961C13.9273 17.1019 13.3223 17.2419 12.4357 17.2836C12.2132 17.2936 12.029 17.3019 11.8423 17.3086L11.6807 17.3136C11.0727 17.3284 10.4646 17.3348 9.8565 17.3328L9.23483 17.3336H8.144C7.53588 17.3357 6.92777 17.3293 6.31983 17.3144L6.15816 17.3094C5.96034 17.3023 5.76256 17.2939 5.56483 17.2844C4.67816 17.2428 4.07316 17.1011 3.5415 16.8961C2.9854 16.6872 2.48169 16.3593 2.06566 15.9353C1.64153 15.5188 1.31335 15.0149 1.104 14.4586C0.898163 13.9278 0.758163 13.3228 0.716496 12.4361C0.707216 12.2384 0.698882 12.0406 0.691496 11.8428L0.68733 11.6811C0.671966 11.0732 0.665021 10.4651 0.666496 9.85694V8.14361C0.664171 7.53577 0.670282 6.92794 0.68483 6.32027L0.690663 6.15861C0.69733 5.97194 0.705663 5.78694 0.715663 5.56527C0.75733 4.67777 0.89733 4.07361 1.10316 3.54194C1.31264 2.98579 1.64147 2.48231 2.0665 2.06694C2.48224 1.64257 2.98563 1.31408 3.5415 1.10444C4.07316 0.898607 4.67733 0.758607 5.56483 0.71694L6.15816 0.69194L6.31983 0.687774C6.92748 0.672418 7.53532 0.665472 8.14316 0.66694L9.8565 0.667773ZM8.99983 4.83444C8.44775 4.82663 7.89963 4.92863 7.38731 5.1345C6.87499 5.34037 6.4087 5.64601 6.01553 6.03365C5.62237 6.4213 5.31016 6.88322 5.09707 7.39258C4.88398 7.90193 4.77424 8.44856 4.77424 9.00069C4.77424 9.55282 4.88398 10.0995 5.09707 10.6088C5.31016 11.1182 5.62237 11.5801 6.01553 11.9677C6.4087 12.3554 6.87499 12.661 7.38731 12.8669C7.89963 13.0728 8.44775 13.1747 8.99983 13.1669C10.1049 13.1669 11.1647 12.728 11.9461 11.9466C12.7275 11.1652 13.1665 10.1053 13.1665 9.00027C13.1665 7.89521 12.7275 6.8354 11.9461 6.054C11.1647 5.27259 10.1049 4.83444 8.99983 4.83444ZM8.99983 6.50111C9.33192 6.49499 9.6619 6.5551 9.97049 6.67795C10.2791 6.80079 10.5601 6.98389 10.7971 7.21656C11.0342 7.44923 11.2225 7.7268 11.351 8.03306C11.4796 8.33932 11.5458 8.66812 11.5459 9.00027C11.5459 9.33241 11.4798 9.66124 11.3514 9.96754C11.2229 10.2738 11.0347 10.5515 10.7977 10.7842C10.5608 11.017 10.2798 11.2002 9.97127 11.3231C9.66271 11.4461 9.33276 11.5063 9.00066 11.5003C8.33762 11.5003 7.70174 11.2369 7.2329 10.768C6.76406 10.2992 6.50066 9.66332 6.50066 9.00027C6.50066 8.33723 6.76406 7.70135 7.2329 7.23251C7.70174 6.76367 8.33762 6.50027 9.00066 6.50027L8.99983 6.50111ZM13.3748 3.58444C13.106 3.5952 12.8517 3.70957 12.6653 3.90358C12.4789 4.0976 12.3748 4.35622 12.3748 4.62527C12.3748 4.89433 12.4789 5.15295 12.6653 5.34696C12.8517 5.54098 13.106 5.65535 13.3748 5.66611C13.6511 5.66611 13.9161 5.55636 14.1114 5.36101C14.3068 5.16566 14.4165 4.90071 14.4165 4.62444C14.4165 4.34817 14.3068 4.08322 14.1114 3.88787C13.9161 3.69252 13.6511 3.58277 13.3748 3.58277V3.58444Z" fill="white" fill-opacity="0.3"/>
</svg>
