<svg width="14" height="14" viewBox="0 0 14 14" fill="none" xmlns="http://www.w3.org/2000/svg">
<g clip-path="url(#clip0_29_87)">
<path d="M12.8334 8.16541C12.8165 10.1569 12.706 11.2548 11.982 11.9788C11.1275 12.8333 9.75218 12.8333 7.0016 12.8333C4.25103 12.8333 2.87574 12.8333 2.02124 11.9788C1.16675 11.1243 1.16675 9.74901 1.16675 6.99844C1.16675 4.24786 1.16675 2.87257 2.02124 2.01808C2.74524 1.29408 3.84312 1.18351 5.83463 1.16663" stroke="white" stroke-width="1.05" stroke-linecap="round"/>
<path d="M12.8333 4.08329H8.16667C7.13854 4.08329 6.5064 4.57256 6.25292 4.81937C6.16501 4.90496 6.12106 4.94776 6.11777 4.95106C6.11447 4.95435 6.07167 4.99831 5.98608 5.08621C5.73926 5.33969 5.25 5.97183 5.25 6.99996V8.74996M12.8333 4.08329L9.91667 1.16663M12.8333 4.08329L9.91667 6.99996" stroke="white" stroke-width="1.05" stroke-linecap="round" stroke-linejoin="round"/>
</g>
<defs>
<clipPath id="clip0_29_87">
<rect width="14" height="14" fill="white"/>
</clipPath>
</defs>
</svg>
