<svg width="18" height="15" viewBox="0 0 18 15" fill="none" xmlns="http://www.w3.org/2000/svg">
<path d="M17.7165 1.99992C17.0749 2.29159 16.3832 2.48325 15.6665 2.57492C16.3999 2.13325 16.9665 1.43325 17.2332 0.591585C16.5415 1.00825 15.7749 1.29992 14.9665 1.46659C14.3082 0.749919 13.3832 0.333252 12.3332 0.333252C10.3749 0.333252 8.77487 1.93325 8.77487 3.90825C8.77487 4.19159 8.8082 4.46659 8.86654 4.72492C5.89987 4.57492 3.2582 3.14992 1.49987 0.991585C1.19154 1.51659 1.01654 2.13325 1.01654 2.78325C1.01654 4.02492 1.64154 5.12492 2.6082 5.74992C2.01654 5.74992 1.46654 5.58325 0.983203 5.33325V5.35825C0.983203 7.09159 2.21654 8.54159 3.84987 8.86659C3.32548 9.01009 2.77495 9.03006 2.24154 8.92492C2.46788 9.63532 2.91115 10.2569 3.50905 10.7024C4.10695 11.1478 4.82941 11.3947 5.57487 11.4083C4.31123 12.4086 2.74487 12.9493 1.1332 12.9416C0.84987 12.9416 0.566536 12.9249 0.283203 12.8916C1.86654 13.9083 3.74987 14.4999 5.76654 14.4999C12.3332 14.4999 15.9415 9.04992 15.9415 4.32492C15.9415 4.16659 15.9415 4.01659 15.9332 3.85825C16.6332 3.35825 17.2332 2.72492 17.7165 1.99992Z" fill="white" fill-opacity="0.3"/>
</svg>
