<svg width="14" height="17" viewBox="0 0 14 17" fill="none" xmlns="http://www.w3.org/2000/svg">
<path d="M5.24677 15.9461V9.80973C5.24677 9.42224 5.4007 9.05062 5.67469 8.77662C5.94869 8.50262 6.32031 8.34869 6.7078 8.34869C7.0953 8.34869 7.46692 8.50262 7.74091 8.77662C8.01491 9.05062 8.16884 9.42224 8.16884 9.80973V13.024H10.5065C11.1265 13.024 11.7211 13.2703 12.1595 13.7087C12.5979 14.1471 12.8442 14.7417 12.8442 15.3617V15.9461" stroke="white" stroke-width="1.16883" stroke-linecap="round" stroke-linejoin="round"/>
<path d="M2.78056 10.2305C2.00452 9.45391 1.47616 8.46464 1.26227 7.38778C1.04837 6.31092 1.15856 5.19482 1.5789 4.18057C1.99923 3.16633 2.71084 2.29947 3.62376 1.6896C4.53669 1.07972 5.60994 0.754211 6.70783 0.754211C7.80573 0.754211 8.87898 1.07972 9.7919 1.6896C10.7048 2.29947 11.4164 3.16633 11.8368 4.18057C12.2571 5.19482 12.3673 6.31092 12.1534 7.38778C11.9395 8.46464 11.4111 9.45391 10.6351 10.2305" stroke="white" stroke-width="1.16883" stroke-linecap="round" stroke-linejoin="round"/>
</svg>
